<svg width="1121" height="541" viewBox="0 0 1121 541" fill="none" xmlns="http://www.w3.org/2000/svg">
<path d="M782.328 278.49C786.932 264.109 788.24 251.505 786.615 243.089C766.266 258.281 745.766 275.568 724.75 292.526C703.724 309.479 683.51 326.432 664.12 343.391C644.729 360.339 626.755 376.885 610.208 393.031C593.667 409.167 579.76 424.089 568.5 437.792C557.245 451.484 549.245 463.49 544.495 473.797C539.75 484.104 539.547 491.969 543.885 497.401C546.87 501.198 553.245 501.672 563.01 498.828C572.771 495.979 585.932 488.859 602.474 477.464C609.26 472.849 617.807 466.271 628.115 457.729C638.422 449.182 649.542 439.479 661.479 428.635C673.411 417.781 685.688 405.984 698.302 393.24C710.917 380.479 722.781 367.526 733.906 354.375C745.021 341.219 754.859 328.13 763.406 315.109C771.948 302.089 778.255 289.88 782.328 278.49ZM676.938 199.146C677.479 198.875 680.734 196.365 686.703 191.62C692.672 186.875 699.656 180.906 707.661 173.708C715.656 166.526 723.932 158.594 732.479 149.906C741.026 141.234 748.281 132.818 754.25 124.682C760.214 116.542 764.078 109.219 765.849 102.708C767.609 96.1979 765.776 91.3177 760.354 88.0625C754.656 85.0781 748.62 83.9896 742.245 84.8073C735.87 85.6198 729.839 87.5208 724.141 90.5C718.708 93.4896 713.422 97.2865 708.271 101.896C703.115 106.51 698.161 111.396 693.417 116.542C688.672 121.698 684.193 126.714 679.99 131.599C675.781 136.479 671.917 140.823 668.396 144.62C664.589 148.417 648.307 162.995 644.516 164.755C640.719 166.521 637.536 167.339 634.953 167.193C632.38 167.063 630.818 165.906 630.276 163.734C629.734 161.568 631.089 158.589 634.344 154.786C640.854 147.193 659.781 128.078 666.156 121.016C672.526 113.964 679.177 107.458 686.094 101.484C693.01 95.5261 700.339 90.0938 708.068 85.2083C715.797 80.3281 724.276 76.2552 733.5 73.0052C747.333 68.125 759.266 66.6354 769.307 68.5313C779.339 70.4271 787.068 74.5 792.5 80.7344C797.922 86.9792 800.974 94.974 801.656 104.74C802.328 114.505 800.229 124.75 795.349 135.464C790.464 146.182 782.797 157.026 772.354 168.016C761.911 179 748.281 188.839 731.464 197.516C744.484 200.229 755.469 203.76 764.422 208.094C773.375 212.438 780.833 217.453 786.802 223.151C806.245 208.198 849.599 181.87 862.969 173.802C876.911 165.391 890.036 174.719 862.703 189.469C845.734 198.63 817.38 220.203 796.411 235.516C803.188 247.719 806.063 262.823 803.891 278.693C801.719 294.563 796.427 311.245 788.021 328.74C779.615 346.24 768.76 363.87 755.469 381.641C742.177 399.406 727.802 416.49 712.339 432.906C696.875 449.318 681.073 464.443 664.932 478.276C648.797 492.115 633.677 503.635 619.568 512.865C606.005 521.813 593.391 528.531 581.724 533.005C570.063 537.479 559.62 540.057 550.391 540.74C541.177 541.412 533.302 540.464 526.792 537.891C520.281 535.307 515.401 531.307 512.146 525.885C506.995 518.016 505.776 508.521 508.484 497.401C511.198 486.276 516.896 474.073 525.573 460.781C534.255 447.484 545.172 433.516 558.328 418.87C571.49 404.219 585.865 389.432 601.458 374.521C617.063 359.594 633.339 344.948 650.286 330.573C667.24 316.188 683.651 302.63 699.521 289.88C715.391 277.125 730.172 265.599 743.875 255.297C757.568 244.99 769.031 236.448 778.255 229.661C774.453 226.682 769.714 224.51 764.016 223.151C758.318 221.797 752.078 221.052 745.297 220.911C738.516 220.781 731.26 220.911 723.531 221.318C715.797 221.729 708.13 222.068 700.536 222.333C693.755 224.781 688.193 225.323 683.854 223.964C679.516 222.609 676.328 220.505 674.297 217.656C672.26 214.807 671.448 211.625 671.854 208.094C672.26 204.573 673.948 201.583 676.938 199.146Z" fill="#C9A961"/>
<path d="M248.422 36.6198L234.99 112.307C243.536 112.714 248.828 112.714 249.234 112.714C280.562 112.714 302.542 86.2656 309.458 53.7083C316.375 23.1979 302.13 8.13542 272.833 8.13542C257.776 8.13542 251.672 16.276 248.422 36.6198ZM252.49 123.703C248.422 123.703 241.094 123.703 232.552 124.516L215.052 224.208C211.797 241.302 213.427 248.214 235.802 248.214C276.089 248.214 296.839 226.651 304.573 189.214C313.115 150.557 298.875 123.703 252.49 123.703ZM348.115 184.328C339.568 225.833 294.401 257.167 242.318 257.167C228.479 257.167 205.693 254.724 189.823 254.724C171.922 254.724 155.234 255.542 142.62 255.542C141.401 255.542 141.807 250.656 142.62 250.656C163.781 250.656 170.698 244.557 175.172 221.365L208.542 32.9635C212.203 9.35937 207.323 6.10417 187.385 6.10417C185.349 6.10417 186.568 1.21875 187.385 1.21875C200.406 1.21875 215.865 2.44271 232.958 2.44271C247.609 2.44271 263.068 0 278.937 0C329.802 0 355.844 19.5313 348.927 54.526C343.635 78.9375 323.292 100.51 288.297 113.125C332.245 119.635 355.437 147.708 348.115 184.328ZM459.187 194.911C468.141 146.083 456.75 102.948 432.333 102.948C416.87 102.948 403.036 120.854 396.12 159.51C387.573 208.75 398.557 251.068 422.568 251.068C440.062 251.068 453.089 229.089 459.187 194.911ZM355.833 177.005C365.193 127.365 402.63 93.1823 445.76 93.1823C490.927 93.1823 508.833 129.807 499.474 177.005C488.49 232.755 446.578 261.234 408.734 261.234C363.568 261.234 347.286 221.771 355.833 177.005ZM902.5 104.172C884.188 104.172 869.073 140.031 862.969 173.802C890.896 156.682 912.266 144.859 915.115 123.703C917.146 111.901 912.266 104.172 902.5 104.172ZM956.208 115.156C953.063 140.734 900.375 169.974 862.703 189.469C859.542 222.927 870.354 242.521 902.906 242.521C913.078 242.521 927.729 239.26 939.526 229.906C940.75 229.089 943.599 231.938 942.375 233.161C921.625 253.099 898.839 260.427 878.896 260.427C831.693 260.427 817.047 220.141 824.781 180.26C832.917 137.531 872.385 93.1823 923.656 93.1823C945.63 93.1823 957.906 101.375 956.208 115.156ZM604.854 194.911C613.807 146.083 602.411 102.948 577.995 102.948C562.536 102.948 548.703 120.854 541.781 159.51C533.24 208.75 544.224 251.068 568.229 251.068C585.729 251.068 598.75 229.089 604.854 194.911ZM501.5 177.005C510.859 127.365 548.292 93.1823 591.427 93.1823C636.594 93.1823 654.495 129.807 645.141 177.005C634.151 232.755 592.24 261.234 554.396 261.234C509.229 261.234 492.953 221.771 501.5 177.005ZM0 175.813V152.849C0 146.292 2.75521 140.922 12 140.922C20.6458 140.922 23.3333 146.292 23.3333 152.849V159.635C23.3333 160.302 23.0313 160.677 22.3594 160.677H17.1458C16.5469 160.677 16.1771 160.302 16.1771 159.635V152.401C16.1771 148.823 14.7604 147.333 12 147.333C9.16667 147.333 7.75 148.823 7.75 152.401V176.333C7.75 179.984 9.16667 181.401 12 181.401C14.7604 181.401 16.1771 179.984 16.1771 176.333V169.026C16.1771 168.354 16.5469 167.984 17.1458 167.984H22.3594C23.0313 167.984 23.3333 168.354 23.3333 169.026V175.813C23.3333 182.443 20.8698 187.813 12 187.813C2.53125 187.813 0 182.443 0 175.813ZM44.0573 178.193V150.542C43.4635 148.823 42.1979 147.26 39.6615 147.26C36.8281 147.26 35.4115 148.901 35.4115 152.255V176.479C35.4115 179.833 36.8281 181.474 39.6615 181.474C42.1979 181.474 43.4635 179.911 44.0573 178.193ZM27.6563 177.151V151.583C27.6563 144.573 30.4167 140.922 37.0521 140.922C40.4063 140.922 43.2396 143.161 43.9844 145.547H44.2813V142.49C44.2813 141.891 44.6563 141.521 45.3229 141.521H50.7656C51.4375 141.521 51.8125 141.891 51.8125 142.49V186.172C51.8125 186.844 51.4375 187.214 50.7656 187.214H45.3229C44.6563 187.214 44.2813 186.844 44.2813 186.172V183.188H43.9844C43.2396 185.573 40.4063 187.813 37.0521 187.813C30.4167 187.813 27.6563 184.161 27.6563 177.151ZM59.4167 187.214C58.8229 187.214 58.4479 186.844 58.4479 186.172V147.484H56.1354C55.5417 147.484 55.1667 147.109 55.1667 146.516V142.49C55.1667 141.891 55.5417 141.521 56.1354 141.521H58.4479V141.37C58.4479 135.479 61.7292 131.828 70.4479 131.828H71.6458C72.3125 131.828 72.6094 132.203 72.6094 132.797V135.781C72.6094 136.453 72.3906 136.823 71.8646 136.823H70.7448C67.5417 136.823 66.2031 137.792 66.2031 140.849V141.521H71.2708C71.8646 141.521 72.2396 141.891 72.2396 142.49V146.516C72.2396 147.109 71.8646 147.484 71.2708 147.484H66.2031V186.172C66.2031 186.844 65.8281 187.214 65.1563 187.214H59.4167ZM81.5625 152.401V162.021H88.0469C90.1354 162.021 90.0573 161.349 90.0573 158.885V152.401C90.0573 148.823 88.6406 147.333 85.8073 147.333C82.974 147.333 81.5625 148.823 81.5625 152.401ZM81.5625 168.13V176.333C81.5625 179.984 82.974 181.401 85.8073 181.401C88.7135 181.401 90.0573 179.984 90.0573 176.333V173.87C90.0573 173.276 90.4323 172.901 91.099 172.901H96.6198C97.2917 172.901 97.6615 173.276 97.6615 173.87V175.813C97.6615 182.443 95.1302 187.813 85.8073 187.813C76.3438 187.813 73.8073 182.443 73.8073 175.813V152.849C73.8073 146.292 76.5677 140.922 85.8073 140.922C94.9063 140.922 97.6615 146.365 97.6615 152.849V161.797C97.6615 166.938 97.2135 168.13 93.0365 168.13H81.5625ZM92.8281 136.802H78.1042C77.6198 136.802 77.2292 136.411 77.2292 135.927V132.75C77.2292 132.266 77.6198 131.875 78.1042 131.875H92.8281C93.3125 131.875 93.7031 132.266 93.7031 132.75V135.927C93.7031 136.411 93.3125 136.802 92.8281 136.802ZM996.505 178.193V150.542C995.911 148.823 994.646 147.26 992.109 147.26C989.276 147.26 987.859 148.901 987.859 152.255V176.479C987.859 179.833 989.276 181.474 992.109 181.474C994.646 181.474 995.911 179.911 996.505 178.193ZM980.104 177.151V152.031C980.104 145.099 982.938 140.922 989.724 140.922C992.703 140.922 995.161 142.49 996.208 144.5H996.505V133.172C996.505 132.5 996.88 132.203 997.474 132.203H1003.21C1003.89 132.203 1004.26 132.573 1004.26 133.172V186.172C1004.26 186.844 1003.89 187.214 1003.21 187.214H997.771C997.104 187.214 996.729 186.917 996.729 186.172V183.188H996.432C995.688 185.573 992.854 187.813 989.5 187.813C982.865 187.813 980.104 184.161 980.104 177.151ZM1010.67 187.214C1010 187.214 1009.63 186.844 1009.63 186.172V142.49C1009.63 141.891 1010 141.521 1010.67 141.521H1016.19C1016.79 141.521 1017.16 141.891 1017.16 142.49V145.542H1017.46C1018.05 143.828 1020.73 141.073 1023.79 141.073C1024.39 141.073 1024.76 141.443 1024.76 141.891V149.349C1024.76 149.943 1024.39 150.313 1023.79 150.313H1021.78C1018.87 150.313 1017.83 152.328 1017.38 154.786V186.172C1017.38 186.844 1017.01 187.214 1016.41 187.214H1010.67ZM1029.09 187.214C1028.42 187.214 1028.05 186.844 1028.05 186.172V142.49C1028.05 141.891 1028.42 141.521 1029.09 141.521H1034.83C1035.42 141.521 1035.8 141.891 1035.8 142.49V186.172C1035.8 186.844 1035.42 187.214 1034.83 187.214H1029.09ZM1029.09 137.865C1028.42 137.865 1028.05 137.495 1028.05 136.823V133.469C1028.05 132.797 1028.42 132.5 1029.09 132.5H1034.76C1035.42 132.5 1035.8 132.797 1035.8 133.469V136.823C1035.8 137.495 1035.42 137.865 1034.76 137.865H1029.09ZM1042.21 187.214C1041.54 187.214 1041.17 186.844 1041.17 186.172V142.49C1041.17 141.891 1041.54 141.521 1042.21 141.521H1047.72C1048.32 141.521 1048.69 141.891 1048.69 142.49V145.542H1048.99C1050.33 143.234 1052.87 140.922 1056.67 140.922C1063.97 140.922 1065.09 145.323 1065.09 152.698V186.172C1065.09 186.844 1064.8 187.214 1064.13 187.214H1058.39C1057.71 187.214 1057.34 186.844 1057.34 186.172V152.625C1057.34 148.901 1056.3 147.333 1053.76 147.333C1051.38 147.333 1049.81 148.526 1048.92 150.688V186.172C1048.92 186.844 1048.55 187.214 1047.95 187.214H1042.21ZM1087.83 187.214C1087.16 187.214 1086.79 186.917 1086.64 186.245L1078.67 160.604C1078.52 160.005 1078.59 159.708 1078.74 159.188L1086.27 142.49C1086.49 141.818 1086.86 141.521 1087.46 141.521H1093.13C1093.87 141.521 1094.24 141.964 1093.95 142.714L1085.97 159.188C1085.74 159.781 1085.74 160.078 1085.9 160.677L1094.77 186.094C1094.92 186.766 1094.54 187.214 1093.87 187.214H1087.83ZM1071.51 187.214C1070.84 187.214 1070.46 186.844 1070.46 186.172V133.172C1070.46 132.573 1070.84 132.203 1071.51 132.203H1077.25C1077.84 132.203 1078.21 132.573 1078.21 133.172V186.172C1078.21 186.844 1077.84 187.214 1077.25 187.214H1071.51ZM1096.04 175.51V174.245C1096.04 173.573 1096.41 173.203 1097.01 173.203H1102.74C1103.42 173.203 1103.79 173.573 1103.79 174.245V176.031C1103.79 179.609 1105.35 181.401 1108.11 181.401C1111.02 181.401 1112.58 179.609 1112.58 176.031C1112.58 166.193 1096.04 167.609 1096.04 152.552C1096.04 146.365 1098.94 140.922 1107.96 140.922C1117.06 140.922 1120.19 146.365 1120.19 152.703V153.745C1120.19 154.339 1119.82 154.714 1119.15 154.714H1113.41C1112.73 154.714 1112.44 154.339 1112.44 153.745V152.177C1112.44 148.823 1110.72 147.333 1107.96 147.333C1105.43 147.333 1103.79 148.901 1103.79 152.031C1103.79 161.495 1120.34 160.307 1120.34 175.51C1120.34 182.146 1117.51 187.813 1108.11 187.813C1098.94 187.813 1096.04 182.146 1096.04 175.51Z" fill="#353535"/>
</svg>